<?xml version="1.0" standalone="no"?>
<!DOCTYPE svg PUBLIC "-//W3C//DTD SVG 20010904//EN"
 "http://www.w3.org/TR/2001/REC-SVG-20010904/DTD/svg10.dtd">
<svg version="1.0" xmlns="http://www.w3.org/2000/svg"
 width="500.000000pt" height="500.000000pt" viewBox="0 0 500.000000 500.000000"
 preserveAspectRatio="xMidYMid meet">
<metadata>
Created by potrace 1.14, written by Peter Selinger 2001-2017
</metadata>
<g transform="translate(0.000000,500.000000) scale(0.100000,-0.100000)"
fill="#000000" stroke="none">
<path d="M1111 4290 c-5 -4 -8 -273 -2 -316 0 -6 27 -10 66 -9 l65 1 0 -108 0
-108 -65 0 -65 0 0 -120 0 -120 -27 -1 c-16 -1 -51 -2 -80 -3 -28 0 -54 -4
-58 -8 -6 -6 -9 -111 -6 -165 1 -8 26 -11 82 -10 48 1 83 -2 85 -8 2 -5 5
-300 6 -655 l3 -645 143 -3 143 -3 -2 -97 c-1 -159 -12 -142 86 -142 61 0 85
-4 86 -12 0 -7 1 -60 2 -118 l2 -105 163 -3 162 -2 0 -90 c0 -50 -3 -90 -7
-91 -5 -1 -75 -2 -158 -3 l-150 -1 -3 -173 -2 -172 -89 0 -89 0 0 -77 c0 -43
-1 -87 -1 -98 -1 -18 -8 -20 -78 -20 l-78 0 -1 -262 -2 -263 79 0 c68 0 79 -2
80 -17 0 -10 1 -73 2 -141 l0 -122 1113 0 1113 0 3 142 3 143 70 0 70 0 0 260
0 260 -72 0 -73 0 0 97 0 97 -92 3 -93 3 0 167 0 168 -110 1 c-154 2 -165 3
-173 16 -9 14 -7 161 2 171 4 3 68 5 142 4 123 -3 134 -1 135 15 0 10 1 64 2
121 l0 102 94 0 93 0 0 115 0 115 28 1 c15 0 79 1 142 2 l115 2 2 255 c1 140
2 312 2 383 l1 127 74 0 74 0 1 95 1 95 -75 0 -75 0 0 183 0 183 78 -1 77 0 0
90 0 90 -75 1 -75 0 -5 120 -5 119 -67 3 c-59 3 -68 5 -69 22 0 11 -1 58 -1
104 l-1 84 -67 -1 c-36 0 -71 2 -76 5 -5 4 -9 43 -8 87 0 50 -3 81 -10 84 -6
2 -46 3 -88 2 -45 0 -79 4 -81 10 -2 5 -3 40 -2 78 l1 67 -1121 2 c-616 1
-1139 2 -1163 2 -24 1 -47 -1 -51 -4z"/>
</g>
</svg>
